<svg width="348" height="30" viewBox="0 0 348 30" fill="none" xmlns="http://www.w3.org/2000/svg">
<path d="M15.624 1.712C17.352 2.432 18.876 3.464 20.196 4.808C21.54 6.128 22.572 7.652 23.292 9.38C24.012 11.108 24.372 12.92 24.372 14.816C24.372 16.712 24.012 18.524 23.292 20.252C22.572 21.98 21.54 23.516 20.196 24.86C18.876 26.18 17.352 27.2 15.624 27.92C13.896 28.64 12.084 29 10.188 29H0V0.631996H10.188C12.084 0.631996 13.896 0.991996 15.624 1.712ZM15.408 27.488C17.088 26.792 18.576 25.796 19.872 24.5C21.168 23.204 22.152 21.728 22.824 20.072C23.52 18.392 23.868 16.64 23.868 14.816C23.868 12.992 23.52 11.252 22.824 9.596C22.152 7.916 21.168 6.428 19.872 5.132C18.576 3.836 17.088 2.852 15.408 2.18C13.752 1.484 12.012 1.136 10.188 1.136H0.504V11.864L2.376 13.736V28.496H10.188C12.012 28.496 13.752 28.16 15.408 27.488Z" fill="white"/>
<path d="M33.2432 13.736V29H30.8672V0.631996H31.3712V11.864L33.2432 13.736Z" fill="white"/>
<path d="M60.0674 14.564V23.564L54.4514 29.432H54.3074C52.3634 29.432 50.5034 29.072 48.7274 28.352C46.9514 27.608 45.3674 26.552 43.9754 25.184C42.5834 23.792 41.5154 22.208 40.7714 20.432C40.0514 18.632 39.6914 16.76 39.6914 14.816C39.6914 12.872 40.0514 11.012 40.7714 9.236C41.5154 7.436 42.5714 5.852 43.9394 4.484C45.3314 3.092 46.9154 2.036 48.6914 1.316C50.4914 0.571996 52.3634 0.199997 54.3074 0.199997V0.667995C53.0594 0.667995 51.8354 0.835995 50.6354 1.172C49.4594 1.484 48.3314 1.952 47.2514 2.576C46.1954 3.176 45.2234 3.92 44.3354 4.808C42.9914 6.152 41.9594 7.68799 41.2394 9.416C40.5434 11.12 40.1954 12.92 40.1954 14.816C40.1954 16.712 40.5434 18.524 41.2394 20.252C41.9594 21.956 42.9914 23.48 44.3354 24.824C45.6554 26.144 47.1674 27.164 48.8714 27.884C50.5754 28.58 52.3634 28.94 54.2354 28.964L57.6914 25.328V15.068H49.9154V14.564H60.0674Z" fill="white"/>
<path d="M68.9268 13.736V29H66.5508V0.631996H67.0548V11.864L68.9268 13.736Z" fill="white"/>
<path d="M86.679 1.136V10.82L88.515 12.656V29H86.175V1.136H75.375V0.631996H97.623V1.136H86.679Z" fill="white"/>
<path d="M127.581 29H124.917L120.237 20.036H102.885L98.2049 29H97.6289L104.865 15.14H105.441L103.173 19.532H119.949L118.329 16.4L119.121 13.88L112.209 0.631996H112.749L127.581 29Z" fill="white"/>
<path d="M150.384 26.876V29H132.996V0.631996H133.5V28.748L135.372 26.876H150.384Z" fill="white"/>
<path d="M204.784 29H202.12L197.44 20.036H180.088L175.408 29H174.832L182.068 15.14H182.644L180.376 19.532H197.152L195.532 16.4L196.324 13.88L189.412 0.631996H189.952L204.784 29Z" fill="white"/>
<path d="M226.251 14.564V23.564L220.635 29.432H220.491C218.547 29.432 216.687 29.072 214.911 28.352C213.135 27.608 211.551 26.552 210.159 25.184C208.767 23.792 207.699 22.208 206.955 20.432C206.235 18.632 205.875 16.76 205.875 14.816C205.875 12.872 206.235 11.012 206.955 9.236C207.699 7.436 208.755 5.852 210.123 4.484C211.515 3.092 213.099 2.036 214.875 1.316C216.675 0.571996 218.547 0.199997 220.491 0.199997V0.667995C219.243 0.667995 218.019 0.835995 216.819 1.172C215.643 1.484 214.515 1.952 213.435 2.576C212.379 3.176 211.407 3.92 210.519 4.808C209.175 6.152 208.143 7.68799 207.423 9.416C206.727 11.12 206.379 12.92 206.379 14.816C206.379 16.712 206.727 18.524 207.423 20.252C208.143 21.956 209.175 23.48 210.519 24.824C211.839 26.144 213.351 27.164 215.055 27.884C216.759 28.58 218.547 28.94 220.419 28.964L223.875 25.328V15.068H216.099V14.564H226.251Z" fill="white"/>
<path d="M243.966 29C240.726 28.232 238.05 26.54 235.938 23.924C234.906 22.628 234.114 21.224 233.562 19.712C233.01 18.128 232.734 16.484 232.734 14.78C232.734 14.012 232.794 13.256 232.914 12.512C233.034 11.744 233.202 11 233.418 10.28C233.658 9.536 233.946 8.828 234.282 8.156C234.642 7.484 235.05 6.836 235.506 6.212C235.962 5.588 236.466 5 237.018 4.448C238.386 3.08 239.958 2.036 241.734 1.316C243.51 0.571996 245.37 0.199997 247.314 0.199997C249.282 0.199997 251.154 0.571996 252.93 1.316C254.706 2.036 256.278 3.092 257.646 4.484C259.038 5.852 260.094 7.424 260.814 9.2C261.558 10.976 261.93 12.836 261.93 14.78V15.032H233.238C233.262 16.592 233.538 18.092 234.066 19.532C234.594 21.02 235.35 22.376 236.334 23.6C238.35 26.144 240.942 27.776 244.11 28.496L243.966 29ZM233.238 14.528H261.426C261.402 13.304 261.222 12.116 260.886 10.964C260.574 9.812 260.106 8.72 259.482 7.688C258.882 6.632 258.15 5.672 257.286 4.808C255.966 3.488 254.442 2.48 252.714 1.784C251.01 1.064 249.21 0.703997 247.314 0.703997C245.442 0.703997 243.642 1.064 241.914 1.784C240.21 2.48 238.686 3.488 237.342 4.808C236.694 5.456 236.118 6.164 235.614 6.932C235.11 7.676 234.678 8.456 234.318 9.272C233.982 10.088 233.718 10.94 233.526 11.828C233.334 12.716 233.238 13.616 233.238 14.528Z" fill="white"/>
<path d="M288.759 10.388V29H288.255V10.388C288.255 7.7 287.307 5.42 285.411 3.548C283.539 1.652 281.259 0.703997 278.571 0.703997C275.907 0.703997 273.627 1.652 271.731 3.548C269.835 5.42 268.887 7.7 268.887 10.388V10.82L270.759 12.656V29H268.383V10.388C268.383 7.58 269.379 5.18 271.371 3.188C273.363 1.196 275.763 0.199997 278.571 0.199997C281.379 0.199997 283.779 1.196 285.771 3.188C287.763 5.18 288.759 7.58 288.759 10.388Z" fill="white"/>
<path d="M309.858 29.432C307.914 29.432 306.054 29.072 304.278 28.352C302.502 27.608 300.918 26.552 299.526 25.184C298.134 23.792 297.066 22.208 296.322 20.432C295.602 18.632 295.242 16.76 295.242 14.816C295.242 12.872 295.614 11.012 296.358 9.236C297.102 7.436 298.158 5.852 299.526 4.484C300.918 3.092 302.502 2.036 304.278 1.316C306.054 0.571996 307.914 0.199997 309.858 0.199997C313.506 0.199997 316.71 1.388 319.47 3.764L319.146 4.124C316.482 1.82 313.386 0.667995 309.858 0.667995C307.986 0.667995 306.186 1.028 304.458 1.748C302.73 2.468 301.194 3.5 299.85 4.844C298.53 6.164 297.51 7.68799 296.79 9.416C296.094 11.12 295.746 12.92 295.746 14.816C295.746 16.712 296.094 18.524 296.79 20.252C297.51 21.956 298.542 23.48 299.886 24.824C300.558 25.472 301.278 26.06 302.046 26.588C302.814 27.092 303.618 27.524 304.458 27.884C305.298 28.22 306.174 28.484 307.086 28.676C307.998 28.868 308.922 28.964 309.858 28.964C313.386 28.964 316.482 27.812 319.146 25.508L319.47 25.868C316.71 28.244 313.506 29.432 309.858 29.432Z" fill="white"/>
<path d="M347.282 0.631996L336.842 14.888V29H336.338V14.888L325.898 0.631996H326.51L336.59 14.384L346.634 0.631996H347.282Z" fill="white"/>
</svg>
